<?xml version="1.0" encoding="utf-8"?>
<!-- Generator: Adobe Illustrator 18.0.0, SVG Export Plug-In . SVG Version: 6.00 Build 0)  -->
<!DOCTYPE svg PUBLIC "-//W3C//DTD SVG 1.1//EN" "http://www.w3.org/Graphics/SVG/1.1/DTD/svg11.dtd">
<svg version="1.1" id="Capa_1" xmlns="http://www.w3.org/2000/svg" xmlns:xlink="http://www.w3.org/1999/xlink" x="0px" y="0px"
	 viewBox="0 0 300 300" enable-background="new 0 0 300 300" xml:space="preserve">
<g>
	<g>
		<path fill="#E3E3E3" d="M28.6,64.3C28.6,56.4,35,50,42.9,50h114.3c7.9,0,14.3,6.4,14.3,14.3s-6.4,14.3-14.3,14.3H42.9
			C35,78.6,28.6,72.2,28.6,64.3z"/>
		<path fill="#E3E3E3" d="M28.6,235.7c0-7.9,6.4-14.3,14.3-14.3h114.3c7.9,0,14.3,6.4,14.3,14.3c0,7.9-6.4,14.3-14.3,14.3H42.9
			C35,250,28.6,243.6,28.6,235.7z"/>
		<path fill="#E3E3E3" d="M0,121.4c0-7.9,6.4-14.3,14.3-14.3h57.1c7.9,0,14.3,6.4,14.3,14.3s-6.4,14.3-14.3,14.3H14.3
			C6.4,135.7,0,129.3,0,121.4z"/>
		<path fill="#E3E3E3" d="M0,178.6c0-7.9,6.4-14.3,14.3-14.3h57.1c7.9,0,14.3,6.4,14.3,14.3s-6.4,14.3-14.3,14.3H14.3
			C6.4,192.9,0,186.5,0,178.6z"/>
	</g>
	<path fill="#F5E37B" d="M300,150c0,15.8-12.8,28.6-28.6,28.6h-28.6l0,0v-57.1l0,0h28.6C287.2,121.4,300,134.2,300,150z"/>
	<path fill="#E9B24D" d="M242.9,178.6h-85.7v-57.1h85.7V178.6z"/>
</g>
</svg>
