<?xml version="1.0" encoding="utf-8"?>
<!-- Generator: Adobe Illustrator 18.0.0, SVG Export Plug-In . SVG Version: 6.00 Build 0)  -->
<!DOCTYPE svg PUBLIC "-//W3C//DTD SVG 1.1//EN" "http://www.w3.org/Graphics/SVG/1.1/DTD/svg11.dtd">
<svg version="1.1" id="Capa_1" xmlns="http://www.w3.org/2000/svg" xmlns:xlink="http://www.w3.org/1999/xlink" x="0px" y="0px"
	 viewBox="0 0 300 300" enable-background="new 0 0 300 300" xml:space="preserve">
<g>
	<path fill="#ECB455" d="M65.9,194h58.3l-25-41.6h103.5l35.9,70.3h-44.1l45.8,77.3L65.9,194z"/>
	<path fill="#CC2A06" d="M300,169.9H0V0h300V169.9z"/>
	<g>
		<rect x="139.5" y="97.6" fill="#FBF4CB" width="17.8" height="17.3"/>
		<path fill="#FBF4CB" d="M122.1,48.3h-14.2l-4.2,17.2h-5.6l4.3-17.2H88.2L84,65.4H70.2v12.2H81l-1.9,8.2H65.4v13.1h10.5L72,114.9
			h14.2L90,98.9h5.6l-3.9,15.9h14.2l3.8-15.9h15.2V85.8h-12l1.9-8.2h14.9V65.4h-11.9L122.1,48.3z M98.8,85.8h-5.6l1.9-8.2h5.6
			L98.8,85.8z"/>
		<rect x="139.5" y="47.6" fill="#FBF4CB" width="17.8" height="39.1"/>
	</g>
	<g>
		<path fill="#F4D9A9" d="M224,88.8c1.1-3.8,1.6-8.2,1.7-13h-14.3c0,2.4-0.2,4.6-0.6,6.6c-0.4,2-0.9,3.9-1.6,5.7l-7.7-8.2
			c2.6-2.3,4.7-4.7,6.3-7.4c1.6-2.7,2.3-5.7,2.3-9.1c0-2.9-0.6-5.3-1.7-7.4c-1.1-2-2.6-3.7-4.5-5c-1.8-1.3-3.9-2.2-6.3-2.8
			c-2.3-0.6-4.7-0.9-7.2-0.9c-2.8,0-5.4,0.4-7.8,1.2c-2.4,0.8-4.4,1.9-6.1,3.3c-1.7,1.4-3.1,3.2-4.1,5.4c-1,2.2-1.5,4.6-1.5,7.3
			c0,2.3,0.4,4.4,1.2,6.3c0.8,1.9,2.2,4.1,4.2,6.5c-2.6,2.1-4.8,4.5-6.6,7.3c-1.8,2.8-2.8,6.1-2.8,9.9c0,2.6,0.5,5.1,1.5,7.6
			c1,2.5,2.5,4.8,4.5,6.8c2,2,4.4,3.6,7.3,4.9c2.9,1.2,6.3,1.9,10.2,1.9c2.9,0,5.9-0.4,8.8-1.1c2.9-0.8,5.7-1.9,8.4-3.6l3.6,3.8
			h23.3l-14.9-15.7C221.5,96.1,222.9,92.7,224,88.8z M188,61.4c0.6-0.7,1.4-1,2.5-1c1,0,1.8,0.3,2.4,0.8c0.6,0.6,0.9,1.4,0.9,2.4
			c0,1-0.3,1.8-0.8,2.5c-0.6,0.7-1.5,1.4-2.7,2.3c-1.1-1.1-1.9-1.9-2.4-2.5c-0.5-0.6-0.7-1.3-0.7-2.1C187.1,62.9,187.4,62,188,61.4z
			 M192.4,101.9c-1.5,0-2.8-0.2-3.8-0.8c-1.1-0.5-1.9-1.1-2.6-1.9s-1.1-1.5-1.4-2.4c-0.3-0.8-0.4-1.6-0.4-2.3c0-1.7,1.1-3.5,3.2-5.3
			l10.6,11.3C196.1,101.5,194.2,101.9,192.4,101.9z"/>
		<rect x="150" y="97.6" fill="#F4D9A9" width="7.3" height="17.3"/>
		<rect x="150" y="47.6" fill="#F4D9A9" width="7.3" height="39.1"/>
	</g>
</g>
</svg>
