<?xml version="1.0" encoding="utf-8"?>
<!-- Generator: Adobe Illustrator 18.0.0, SVG Export Plug-In . SVG Version: 6.00 Build 0)  -->
<!DOCTYPE svg PUBLIC "-//W3C//DTD SVG 1.1//EN" "http://www.w3.org/Graphics/SVG/1.1/DTD/svg11.dtd">
<svg version="1.1" id="Capa_1" xmlns="http://www.w3.org/2000/svg" xmlns:xlink="http://www.w3.org/1999/xlink" x="0px" y="0px"
	 viewBox="0 0 300 300" enable-background="new 0 0 300 300" xml:space="preserve">
<g>
	<g>
		<g>
			<path fill="#F3D4A6" d="M281.3,245.6v20.3c0,2.3-1.9,4.1-4.1,4.1h-151c-2.3,0-4.1-1.9-4.1-4.1v-20.3c0-21.3,17.3-38.6,38.6-38.6
				c7.5,0,14.2-3.9,18-9.8c3.8-5.9,3.4-11,3.4-15.2l0.1-0.2c-18.6-7.7-31.6-26-31.6-47.3v-1.6c-7.4,0-12.9-5.8-12.9-12.7V98.8
				c-0.2-7.5,0.2-33.9,19.2-52.3c22.2-21.4,57.3-19.6,82.7-8.2c0.8,0.4,0.8,1.6,0,1.9l-6.6,2.7c-1,0.4-0.8,1.9,0.3,2l3.2,0.3
				c17.3,1.9,31.8,12.2,39,24.5c0.1,0.1,0,0.3-0.1,0.4c-5.7,5.8-8.9,13.7-8.9,21.9v27.5c0,7.4-6,13.4-13.4,13.4v1.6
				c0,21.3-13.1,39.6-31.6,47.3l0.1,0.2c0,4-0.4,9.2,3.4,15.2c3.8,5.9,10.4,9.7,18,9.8C264,207,281.3,224.3,281.3,245.6L281.3,245.6
				z"/>
			<path fill="#44454E" d="M275.3,69.8c0.1,0.1,0,0.3-0.1,0.4c-5.7,5.8-8.9,13.7-8.9,21.9v27.5c0,7.4-6,13.4-13.4,13.4
				c0-15.7,0-23.8,0-28.2c0-2.8-2.7-4.8-5.3-4c-8.3,2.6-18.1,3.9-28.3,1.7c-18-3.9-23.1-11-37.8-14.5c-16.4-3.9-31.3,8.6-31.2,24.7
				c0,5.3,0.1,11.9,0.1,20.3c-7.4,0-12.9-5.8-12.9-12.7V98.8c-0.2-7.5,0.2-33.9,19.2-52.3c22.2-21.4,57.3-19.6,82.7-8.2
				c0.8,0.4,0.8,1.6,0,1.9l-6.6,2.7c-1,0.4-0.8,1.9,0.3,2l3.2,0.3C253.7,47.1,268.1,57.5,275.3,69.8z"/>
			<path fill="#F5DDB9" d="M247.5,100.8c2.7-0.8,5.3,1.2,5.3,4c0,4.5,0,13.1,0,29.8c0,21.3-13.1,39.6-31.6,47.3
				c-33.6,13.9-70.8-10.8-70.8-47.3c0-9.4-0.1-16.1-0.1-21.9C150.2,96.6,165.1,84,181.5,88c14.7,3.5,19.8,10.6,37.8,14.5
				C229.4,104.7,239.2,103.3,247.5,100.8z"/>
			<path fill="#44454E" d="M281.3,245.6v20.3c0,2.3-1.9,4.1-4.1,4.1h-151c-2.3,0-4.1-1.9-4.1-4.1v-20.3c0-21.3,17.3-38.6,38.6-38.6
				c7.5,0,14.2-3.9,18-9.8c13.3,11.4,32.9,11.4,46.2,0c3.8,5.9,10.4,9.8,18,9.8C264,207,281.3,224.3,281.3,245.6L281.3,245.6z"/>
			<path fill="#FFFFFF" d="M243.5,261.2h-12.4c-2.3,0-4.1-1.9-4.1-4.1c0-2.3,1.9-4.1,4.1-4.1h12.4c2.3,0,4.1,1.9,4.1,4.1
				C247.7,259.4,245.8,261.2,243.5,261.2z"/>
			<path fill="#4E4F59" d="M181.4,219.5c-1.9,0.6-4,0.9-6.2,1c-21.4,0.2-38.8,17.1-38.8,38.4v3.9c0,4-3.2,7.2-7.2,7.2h-3.1
				c-2.3,0-4.1-1.9-4.1-4.1v-20.3c0-21.3,17.3-38.6,38.6-38.6c7.5,0,14.2-3.9,18-9.8c1.5,1.3,3.2,2.5,4.9,3.5
				C191.1,205.3,189.9,216.8,181.4,219.5L181.4,219.5z"/>
			<path fill="#303036" d="M221.9,219.5c1.9,0.6,4,0.9,6.2,1c21.4,0.2,38.8,17.1,38.8,38.4v3.9c0,4,3.2,7.2,7.2,7.2h3.1
				c2.3,0,4.1-1.9,4.1-4.1v-20.3c0-21.3-17.3-38.6-38.6-38.6c-7.5,0-14.2-3.9-18-9.8c-1.5,1.3-3.2,2.5-4.9,3.5
				C212.2,205.3,213.4,216.8,221.9,219.5L221.9,219.5z"/>
			<path fill="#E8C189" d="M221.9,190.6c-12.7,5.3-26.7,5.7-40.5,0c0.7-2.9,0.6-4.8,0.6-8.5l0.1-0.2c12.5,5.2,26.7,5.2,39.2,0
				l0.1,0.2C221.3,185.8,221.2,187.7,221.9,190.6z"/>
			<path fill="#4E4F59" d="M239.5,40.2c-4.9,2-6,2.7-8.2,2.3c-41-6.8-73.3,14.7-77.8,56.6c-0.1,0.7-0.3,1.5-0.6,2.1
				c-3.1,6.4-2.6,11.1-2.5,19c0.1,8.3-12.4,8.8-12.8,0.5c0-0.5,0,0.8,0-22.1c-0.2-7.5,0.2-33.9,19.2-52.3
				c22.2-21.4,57.3-19.6,82.7-8.2C240.3,38.7,240.3,39.9,239.5,40.2z"/>
			<path fill="#F8E9D1" d="M190.1,167.6c8.4,5.3,1.8,18.2-7.4,14.5c-18.9-7.6-32.2-26-32.2-47.5c0-9.5-0.1-16.1-0.1-21.9
				c0-5.2,1.5-10,4.1-14c3.3-5.1,11.3-2.9,11.4,3.7c0,5.8,0.1,12.5,0.1,21.9C166,143.1,175.9,158.8,190.1,167.6z"/>
		</g>
		<path d="M183,166.3c2.6-5.9,8.4-10,15.2-10s12.6,4.1,15.2,10h7c-2.9-9.6-11.7-16.6-22.2-16.6s-19.3,7-22.2,16.6H183z"/>
	</g>
	<g>
		<path fill="#ECB455" d="M42.2,103H63l-8.9-14.8H91l12.8,25.1H88.1l16.3,27.6L42.2,103z"/>
		<path fill="#CC2A06" d="M125.7,94.5h-107V33.9h107V94.5z"/>
		<g>
			<rect x="68.5" y="68.7" fill="#FBF4CB" width="6.4" height="6.2"/>
			<path fill="#FBF4CB" d="M62.2,51.1h-5l-1.5,6.1h-2l1.5-6.1h-5l-1.5,6.1h-4.9v4.3h3.8l-0.7,2.9h-4.9v4.7h3.7l-1.4,5.7h5l1.4-5.7h2
				l-1.4,5.7h5l1.4-5.7h5.4v-4.7H59l0.7-2.9H65v-4.3h-4.2L62.2,51.1z M54,64.4h-2l0.7-2.9h2L54,64.4z"/>
			<rect x="68.5" y="50.8" fill="#FBF4CB" width="6.4" height="13.9"/>
		</g>
		<g>
			<path fill="#F4D9A9" d="M98.6,65.5c0.4-1.4,0.6-2.9,0.6-4.6h-5.1c0,0.8-0.1,1.6-0.2,2.4c-0.1,0.7-0.3,1.4-0.6,2l-2.7-2.9
				c0.9-0.8,1.7-1.7,2.2-2.6c0.6-1,0.8-2,0.8-3.2c0-1-0.2-1.9-0.6-2.6c-0.4-0.7-0.9-1.3-1.6-1.8c-0.7-0.5-1.4-0.8-2.2-1
				c-0.8-0.2-1.7-0.3-2.6-0.3c-1,0-1.9,0.1-2.8,0.4c-0.8,0.3-1.6,0.7-2.2,1.2c-0.6,0.5-1.1,1.2-1.5,1.9c-0.4,0.8-0.5,1.6-0.5,2.6
				c0,0.8,0.1,1.6,0.4,2.3c0.3,0.7,0.8,1.5,1.5,2.3c-0.9,0.7-1.7,1.6-2.4,2.6c-0.7,1-1,2.2-1,3.5c0,0.9,0.2,1.8,0.5,2.7
				c0.4,0.9,0.9,1.7,1.6,2.4c0.7,0.7,1.6,1.3,2.6,1.7c1,0.4,2.2,0.7,3.6,0.7c1,0,2.1-0.1,3.1-0.4c1-0.3,2-0.7,3-1.3l1.3,1.3h8.3
				l-5.3-5.6C97.7,68.1,98.2,66.9,98.6,65.5z M85.8,55.7c0.2-0.2,0.5-0.4,0.9-0.4c0.4,0,0.6,0.1,0.9,0.3c0.2,0.2,0.3,0.5,0.3,0.9
				c0,0.4-0.1,0.7-0.3,0.9c-0.2,0.2-0.5,0.5-1,0.8c-0.4-0.4-0.7-0.7-0.9-0.9c-0.2-0.2-0.3-0.5-0.3-0.8C85.5,56.3,85.6,56,85.8,55.7z
				 M87.3,70.2c-0.5,0-1-0.1-1.4-0.3c-0.4-0.2-0.7-0.4-0.9-0.7s-0.4-0.6-0.5-0.9c-0.1-0.3-0.2-0.6-0.2-0.8c0-0.6,0.4-1.2,1.1-1.9
				l3.8,4C88.7,70.1,88,70.2,87.3,70.2z"/>
			<rect x="72.2" y="68.7" fill="#F4D9A9" width="2.6" height="6.2"/>
			<rect x="72.2" y="50.8" fill="#F4D9A9" width="2.6" height="13.9"/>
		</g>
	</g>
</g>
</svg>
