<?xml version="1.0" encoding="utf-8"?>
<!-- Generator: Adobe Illustrator 18.0.0, SVG Export Plug-In . SVG Version: 6.00 Build 0)  -->
<!DOCTYPE svg PUBLIC "-//W3C//DTD SVG 1.1//EN" "http://www.w3.org/Graphics/SVG/1.1/DTD/svg11.dtd">
<svg version="1.1" id="Capa_1" xmlns="http://www.w3.org/2000/svg" xmlns:xlink="http://www.w3.org/1999/xlink" x="0px" y="0px"
	 viewBox="0 0 300 300" enable-background="new 0 0 300 300" xml:space="preserve">
<g>
	<g>
		<g>
			<path fill="#F3D4A6" d="M284.3,245.6v20.3c0,2.3-1.9,4.1-4.1,4.1h-151c-2.3,0-4.1-1.9-4.1-4.1v-20.3c0-21.3,17.3-38.6,38.6-38.6
				c7.5,0,14.2-3.9,18-9.8c3.8-5.9,3.4-11,3.4-15.2l0.1-0.2c-18.6-7.7-31.6-26-31.6-47.3v-1.6c-7.4,0-12.9-5.8-12.9-12.7V98.8
				c-0.2-7.5,0.2-33.9,19.2-52.3c22.2-21.4,57.3-19.6,82.7-8.2c0.8,0.4,0.8,1.6,0,1.9l-6.6,2.7c-1,0.4-0.8,1.9,0.3,2l3.2,0.3
				c17.3,1.9,31.8,12.2,39,24.5c0.1,0.1,0,0.3-0.1,0.4c-5.7,5.8-8.9,13.7-8.9,21.9v27.5c0,7.4-6,13.4-13.4,13.4v1.6
				c0,21.3-13.1,39.6-31.6,47.3l0.1,0.2c0,4-0.4,9.2,3.4,15.2c3.8,5.9,10.4,9.7,18,9.8C267.1,207,284.3,224.3,284.3,245.6
				L284.3,245.6z"/>
			<path fill="#44454E" d="M278.3,69.8c0.1,0.1,0,0.3-0.1,0.4c-5.7,5.8-8.9,13.7-8.9,21.9v27.5c0,7.4-6,13.4-13.4,13.4
				c0-15.7,0-23.8,0-28.2c0-2.8-2.7-4.8-5.3-4c-8.3,2.6-18.1,3.9-28.3,1.7c-18-3.9-23.1-11-37.8-14.5c-16.4-3.9-31.3,8.6-31.2,24.7
				c0,5.3,0.1,11.9,0.1,20.3c-7.4,0-12.9-5.8-12.9-12.7V98.8c-0.2-7.5,0.2-33.9,19.2-52.3c22.2-21.4,57.3-19.6,82.7-8.2
				c0.8,0.4,0.8,1.6,0,1.9l-6.6,2.7c-1,0.4-0.8,1.9,0.3,2l3.2,0.3C256.7,47.1,271.1,57.5,278.3,69.8z"/>
			<path fill="#F5DDB9" d="M250.6,100.8c2.7-0.8,5.3,1.2,5.3,4c0,4.5,0,13.1,0,29.8c0,21.3-13.1,39.6-31.6,47.3
				c-33.6,13.9-70.8-10.8-70.8-47.3c0-9.4-0.1-16.1-0.1-21.9C153.3,96.6,168.1,84,184.5,88c14.7,3.5,19.8,10.6,37.8,14.5
				C232.5,104.7,242.2,103.3,250.6,100.8z"/>
			<path fill="#44454E" d="M284.3,245.6v20.3c0,2.3-1.9,4.1-4.1,4.1h-151c-2.3,0-4.1-1.9-4.1-4.1v-20.3c0-21.3,17.3-38.6,38.6-38.6
				c7.5,0,14.2-3.9,18-9.8c13.3,11.4,32.9,11.4,46.2,0c3.8,5.9,10.4,9.8,18,9.8C267.1,207,284.3,224.3,284.3,245.6L284.3,245.6z"/>
			<path fill="#FFFFFF" d="M246.6,261.2h-12.4c-2.3,0-4.1-1.9-4.1-4.1c0-2.3,1.9-4.1,4.1-4.1h12.4c2.3,0,4.1,1.9,4.1,4.1
				C250.7,259.4,248.9,261.2,246.6,261.2z"/>
			<path fill="#4E4F59" d="M184.5,219.5c-1.9,0.6-4,0.9-6.2,1c-21.4,0.2-38.8,17.1-38.8,38.4v3.9c0,4-3.2,7.2-7.2,7.2h-3.1
				c-2.3,0-4.1-1.9-4.1-4.1v-20.3c0-21.3,17.3-38.6,38.6-38.6c7.5,0,14.2-3.9,18-9.8c1.5,1.3,3.2,2.5,4.9,3.5
				C194.2,205.3,192.9,216.8,184.5,219.5L184.5,219.5z"/>
			<path fill="#303036" d="M224.9,219.5c1.9,0.6,4,0.9,6.2,1c21.4,0.2,38.8,17.1,38.8,38.4v3.9c0,4,3.2,7.2,7.2,7.2h3.1
				c2.3,0,4.1-1.9,4.1-4.1v-20.3c0-21.3-17.3-38.6-38.6-38.6c-7.5,0-14.2-3.9-18-9.8c-1.5,1.3-3.2,2.5-4.9,3.5
				C215.2,205.3,216.5,216.8,224.9,219.5L224.9,219.5z"/>
			<path fill="#E8C189" d="M224.9,190.6c-12.7,5.3-26.7,5.7-40.5,0c0.7-2.9,0.6-4.8,0.6-8.5l0.1-0.2c12.5,5.2,26.7,5.2,39.2,0
				l0.1,0.2C224.3,185.8,224.2,187.7,224.9,190.6z"/>
			<path fill="#4E4F59" d="M242.5,40.2c-4.9,2-6,2.7-8.2,2.3c-41-6.8-73.3,14.7-77.8,56.6c-0.1,0.7-0.3,1.5-0.6,2.1
				c-3.1,6.4-2.6,11.1-2.5,19c0.1,8.3-12.4,8.8-12.8,0.5c0-0.5,0,0.8,0-22.1c-0.2-7.5,0.2-33.9,19.2-52.3
				c22.2-21.4,57.3-19.6,82.7-8.2C243.4,38.7,243.3,39.9,242.5,40.2z"/>
			<path fill="#F8E9D1" d="M193.1,167.6c8.4,5.3,1.8,18.2-7.4,14.5c-18.9-7.6-32.2-26-32.2-47.5c0-9.5-0.1-16.1-0.1-21.9
				c0-5.2,1.5-10,4.1-14c3.3-5.1,11.3-2.9,11.4,3.7c0,5.8,0.1,12.5,0.1,21.9C169,143.1,178.9,158.8,193.1,167.6z"/>
		</g>
	</g>
	<ellipse cx="194.6" cy="156.3" rx="13.3" ry="6.6"/>
	<g>
		<path fill="#E8E8E8" d="M105.8,43.3H30.6c-8.3,0-15,6.7-15,15v30.2c0,8.3,6.7,15,15,15h52.6l19.7,19.7v-19.7h2.9
			c8.3,0,15-6.7,15-15V58.3C120.8,50,114.1,43.3,105.8,43.3z"/>
		<path fill="#DBDBDB" d="M15.7,84.6v3.8c0,8.3,6.7,15,15,15h52.6l19.7,19.7v-19.7h2.9c8.3,0,15-6.7,15-15v-3.8H15.7z"/>
		<rect x="30.7" y="60.2" fill="#44454E" width="73.2" height="7.5"/>
		<rect x="30.7" y="77.1" fill="#44454E" width="73.2" height="7.5"/>
	</g>
</g>
</svg>
