<?xml version="1.0" encoding="utf-8"?>
<!-- Generator: Adobe Illustrator 18.0.0, SVG Export Plug-In . SVG Version: 6.00 Build 0)  -->
<!DOCTYPE svg PUBLIC "-//W3C//DTD SVG 1.1//EN" "http://www.w3.org/Graphics/SVG/1.1/DTD/svg11.dtd">
<svg version="1.1" id="Capa_1" xmlns="http://www.w3.org/2000/svg" xmlns:xlink="http://www.w3.org/1999/xlink" x="0px" y="0px"
	 viewBox="0 0 300 300" enable-background="new 0 0 300 300" xml:space="preserve">
<g>
	<path fill="#B5BCCF" d="M212.9,258.1c-25.7,0-46.5-20.8-46.5-46.5s20.8-46.5,46.5-46.5c19.3,0,35.8,11.7,42.9,28.4l16.3-32.7
		l-16.9-16.9l-8.5-33.8H179v25.4l-16.9,16.9l-25.4,25.4l-8.5,42.3l16.9,33.9l33.8,33.8l33.9,8.5v-33.8l25.4-8.5l4.3-6.5
		C234.5,254.1,224.2,258.1,212.9,258.1"/>
	<path fill="#868EAF" d="M237.4,157.3L237.4,157.3c-4.5,6.5-3.8,15.4,1.8,21l15.9,16.3v33.8l-16.9,16.9L209.8,258l3.1,29.7h33.9
		l25.4-25.4l16.9-33.9v-33.8l-16.9-33.8l-11.8-7.9C252.8,147.9,242.6,149.8,237.4,157.3"/>
	<polygon fill="#868EAF" points="85.9,262.3 85.9,296.2 128.2,279.3 145.2,270.8 128.2,236.9 102.8,253.9 	"/>
	<path fill="#B5BCCF" d="M90.2,253.9c-25.7,0-46.5-20.8-46.5-46.5s20.8-46.5,46.5-46.5c19.3,0,35.8,11.7,42.9,28.4l16.3-32.7
		l-16.9-16.9l-8.5-33.8H56.3v25.4l-16.9,16.9L14,173.5l-8.5,42.3l16.9,33.9l33.8,33.8l33.9,8.5v-33.9l25.4-8.5l4.3-6.5
		C111.8,249.8,101.5,253.9,90.2,253.9"/>
	<path d="M256,132.1L256,132.1c-0.3-0.2-0.6-0.6-0.6-1.1v-18.6c0-8.5-6.9-15.5-15.5-15.5h-21.5V79.2c0-18.4-15-33.4-33.4-33.4h-19.6
		c-3.7,0-6.7-3-6.7-6.7c0-23.4-18.1-39.1-38.1-39.1C99.1,0,81.5,17.6,81.5,39.2v57.7H60c-8.5,0-15.5,6.9-15.5,15.5V131
		c0,0.5-0.3,0.9-0.7,1.2C17.3,148.2,0,177.1,0,209.8C0.1,259.3,40.7,300,90.3,300c22.1,0,43.4-8.1,59.8-22.6
		c16,14.1,36.8,22.6,59.6,22.6c49.8,0,90.3-40.2,90.3-90.3C300,177,282.6,148.1,256,132.1 M99.2,39.2c0-11.9,9.7-21.5,21.5-21.5
		c10.3,0,20.5,7.9,20.5,21.5c0,13.5,10.9,24.4,24.4,24.4h19.6c8.7,0,15.7,7,15.7,15.7v17.7h-21.5c-8.5,0-15.5,7-15.5,15.5V131
		c0,0.5-0.3,0.9-0.8,1.2c-4.7,2.8-9,6-13.1,9.6c-4.1-3.6-8.6-6.9-13.3-9.7c-0.3-0.2-0.6-0.6-0.6-1.1v-18.6c0-8.5-6.9-15.5-15.5-15.5
		H99.2V39.2L99.2,39.2z M121.2,227.9c-6.4,10.9-18,17.6-30.9,17.6c-19.8,0-35.8-16.1-35.8-35.8s16.1-35.8,35.8-35.8
		c12.8,0,24.4,6.7,30.9,17.6C118.7,203.5,118.7,215.9,121.2,227.9 M99.2,262.4c10.9-1.8,20.8-6.9,28.7-14.6
		c2.8,5.9,6.2,11.5,10.2,16.7c-10.9,9.5-24.5,15.5-38.9,17.3V262.4z M17.6,209.8c0-25.8,13.1-49.1,35.2-62.4
		c5.7-3.4,9.3-9.7,9.3-16.3v-16.4h19.3v13.8c0,4.9,3.9,8.8,8.8,8.8c4.9,0,8.8-3.9,8.8-8.8v-13.8h19.3V131c0,6.7,3.5,12.9,9.1,16.2
		c3.7,2.2,7.1,4.7,10.3,7.5c-4.2,5.5-7.5,11-10.2,16.7c-9.8-9.7-23.1-15.3-37.4-15.3c-29.5,0-53.5,24-53.5,53.5
		c0,26.5,19.4,48.5,44.7,52.7v19.4C45.7,277.4,17.7,246.6,17.6,209.8 M209.7,245.5c-19.8,0-35.8-16.1-35.8-35.8
		c0-19.8,16.1-35.8,35.8-35.8c19.8,0,35.8,16.1,35.8,35.8C245.5,229.4,229.4,245.5,209.7,245.5 M218.5,281.8v-19.4
		c25.3-4.2,44.7-26.3,44.7-52.7c0-29.5-24-53.5-53.5-53.5s-53.5,24-53.5,53.5c0,26.5,19.3,48.5,44.7,52.7v19.4
		c-68.2-8.4-87.5-99-28.6-134.5c5.7-3.4,9.3-9.7,9.3-16.3v-16.4h19.3v13.8c0,4.9,3.9,8.8,8.8,8.8c4.9,0,8.8-3.9,8.8-8.8v-13.8h19.3
		V131c0,6.7,3.5,12.9,9.1,16.3c22.2,13.3,35.4,36.6,35.4,62.4C282.3,247.2,254.1,277.5,218.5,281.8"/>
</g>
</svg>
